<svg xmlns="http://www.w3.org/2000/svg" width="53" height="16" viewBox="0 0 53 16"><path fill="#283cdc" d="M11.8 7.1c-.5-.1-1.9-.4-1.9-.4-1.1-.2-1.8-.4-1.8-1 0-.5.4-.9 1.6-.9 1 0 1.7.3 1.8 1.3h3.4c-.1-1.8-1.5-3-5.1-3-2.9-.1-5.2.8-5.2 3 0 1.7 1.7 2.2 3.4 2.6.5.1 1.9.4 1.9.4 1.1.2 1.8.5 1.8 1.1 0 .5-.4 1-1.9 1-1 0-1.8-.4-1.8-1.5h-3.7c0 1.6.8 3.3 5.4 3.3 3 0 5.6-.6 5.6-3.1-.1-1.6-1.2-2.3-3.5-2.8zm11.3-3.9h-4.2l-3.9 4.5 4 5h4.6l-4.4-5.2 3.9-4.3zm19.8-.2c-4.1 0-6.3 1.9-6.3 5 0 3 1.7 5 6.3 5 4 0 6.3-1.9 6.3-5 0-3-1.8-5-6.3-5zm0 8c-2 0-2.6-1.3-2.6-3s.8-3 2.6-3c1.9 0 2.6 1.3 2.6 3 .1 1.7-.6 3-2.6 3zm9.4-8.4c-.4-.8-1.1-1.5-1.9-1.9-.8-.5-1.6-.7-3.8-.7h-40.2c-2.2 0-3 .2-3.9.7-.8.4-1.4 1-1.8 1.9-.5.8-.7 1.6-.7 3.8v3.2c0 2.2.2 3 .7 3.9.4.8 1.1 1.5 1.9 1.9.8.4 1.6.6 3.8.6h40.2c2.2 0 3-.2 3.9-.7.8-.4 1.5-1.1 1.9-1.9.4-.8.7-1.6.7-3.9v-3.1c-.1-2.2-.3-3-.8-3.8zm.2 7c0 2-.2 2.8-.6 3.6-.4.7-1 1.3-1.7 1.7-.8.5-1.7.6-3.6.6h-40.2c-2 0-2.8-.2-3.6-.6-.7-.4-1.3-1-1.7-1.7-.5-.8-.6-1.7-.6-3.6v-3.2c0-2 .2-2.8.6-3.6.4-.7 1-1.3 1.7-1.7.8-.5 1.7-.6 3.6-.6h40.2c2 0 2.8.2 3.6.6.7.4 1.3 1 1.7 1.7.5.8.6 1.7.6 3.6v3.2zm-22.7-6.4h-5.6v9.5h5.5c3.8 0 6.4-1.2 6.4-4.8 0-3.7-2.9-4.7-6.3-4.7zm-.8 7.6h-1.2v-5.6h1.5c1.9 0 3.2.6 3.2 2.8 0 2.4-1.4 2.8-3.5 2.8z"/></svg>
